<?xml version="1.0" encoding="utf-8"?>
<!-- Generator: Adobe Illustrator 19.0.0, SVG Export Plug-In . SVG Version: 6.00 Build 0)  -->
<svg version="1.1" id="Capa_1" xmlns="http://www.w3.org/2000/svg" xmlns:xlink="http://www.w3.org/1999/xlink" x="0px" y="0px"
	 viewBox="-55 179.6 483.3 483.3" style="enable-background:new -55 179.6 483.3 483.3;" xml:space="preserve">
<style type="text/css">
	.st0{fill:#FFFFFF;}
	.st1{stroke:#FFFFFF;stroke-miterlimit:10;}
</style>
<g>
	<g>
		<rect x="-36.1" y="248" class="st0" width="440.2" height="322"/>
		<path class="st1" d="M364.6,233H3.5c-32.2,0-58.5,26.5-58.5,59.1v249.6c0,32.6,26.2,59.1,58.5,59.1h361.1
			c32.2,0,58.5-26.5,58.5-59.1V292.2C423.1,259.6,396.9,233,364.6,233z M396.4,541.7c0,17.7-14.2,32.1-31.7,32.1H3.5
			c-17.5,0-31.7-14.4-31.7-32.1V292.2c0-17.7,14.2-32.1,31.7-32.1h361.1c17.5,0,31.7,14.4,31.7,32.1L396.4,541.7L396.4,541.7z"/>
		<path class="st1" d="M241.5,405.8l116.9-106c5.4-5,5.9-13.5,1-19.1c-4.9-5.5-13.4-6-18.9-1L179.2,426l-31.5-28.4
			c-0.1-0.1-0.2-0.2-0.2-0.3c-0.7-0.7-1.4-1.3-2.2-1.9l-128-115.8c-5.5-5-13.9-4.5-18.9,1.1s-4.5,14.1,1.1,19.1l118.4,106.9
			L0.1,518.2c-5.3,5.1-5.6,13.6-0.6,19.1c2.7,2.8,6.2,4.3,9.8,4.3c3.3,0,6.5-1.2,9.1-3.6L138,424.9l32.4,29.3
			c2.6,2.3,5.7,3.4,8.9,3.4s6.4-1.2,8.9-3.5l33.3-30.2l118.9,114.2c2.6,2.5,5.9,3.7,9.2,3.7c3.6,0,7-1.4,9.7-4.2
			c5-5.4,4.8-14-0.5-19.1L241.5,405.8z"/>
	</g>
</g>
</svg>
