<?xml version="1.0" encoding="utf-8"?>
<!-- Generator: Adobe Illustrator 19.0.0, SVG Export Plug-In . SVG Version: 6.00 Build 0)  -->
<svg version="1.1" id="Capa_1" xmlns="http://www.w3.org/2000/svg" xmlns:xlink="http://www.w3.org/1999/xlink" x="0px" y="0px"
	 viewBox="-82 205.8 430.1 430.1" style="enable-background:new -82 205.8 430.1 430.1;" xml:space="preserve">
<style type="text/css">
	.st0{fill:#FFFFFF;stroke:#FFFFFF;stroke-miterlimit:10;}
</style>
<g>
	<rect x="-60.8" y="223.2" class="st0" width="396.2" height="389.9"/>
	<path id="LinkedIn__x28_alt_x29_" d="M316.4,203.7H-50.2c-17.6,0-31.8,13.8-31.8,30.8v368.5c0,17,14.2,30.8,31.8,30.8h366.6
		c17.5,0,31.8-13.8,31.8-30.8V234.5C348.1,217.5,333.9,203.7,316.4,203.7z M48.4,563.7h-65V369.5h65V563.7z M15.9,343h-0.4
		c-21.8,0-35.9-14.9-35.9-33.6c0-19,14.5-33.5,36.8-33.5c22.2,0,35.9,14.5,36.3,33.5C52.7,328.1,38.6,343,15.9,343z M282.7,563.7
		h-65V459.8c0-26.1-9.4-43.9-32.9-43.9c-18,0-28.6,12-33.3,23.6c-1.7,4.1-2.2,9.9-2.2,15.7v108.5h-65c0,0,0.9-176,0-194.2h65V397
		c8.6-13.2,24-32.1,58.5-32.1c42.8,0,74.8,27.7,74.8,87.4L282.7,563.7L282.7,563.7z M148.9,397.6c0.1-0.2,0.3-0.4,0.4-0.6v0.6H148.9
		z"/>
</g>
</svg>
